<?xml version="1.0" standalone="no"?>
<!DOCTYPE svg PUBLIC "-//W3C//DTD SVG 20010904//EN"
 "http://www.w3.org/TR/2001/REC-SVG-20010904/DTD/svg10.dtd">
<svg version="1.0" xmlns="http://www.w3.org/2000/svg"
 width="512.000000pt" height="512.000000pt" viewBox="0 0 512.000000 512.000000"
 preserveAspectRatio="xMidYMid meet">
<metadata>
Created by potrace 1.14, written by Peter Selinger 2001-2017
</metadata>
<g transform="translate(0.000000,512.000000) scale(0.100000,-0.100000)"
fill="#000000" stroke="none">
<path d="M1364 5100 c-66 -5 -163 -16 -215 -26 -52 -10 -111 -18 -131 -19 -25
0 -75 -20 -150 -60 -132 -70 -208 -141 -263 -246 -69 -131 -64 17 -66 -2205
-2 -2222 -6 -2072 62 -2206 81 -161 266 -263 519 -286 62 -6 692 -8 1550 -7
1427 3 1446 4 1510 24 122 39 214 118 295 256 30 51 55 101 55 110 0 9 9 51
19 93 46 182 52 342 32 867 -13 342 -13 457 2 1140 25 1076 21 1416 -19 1851
-8 94 -14 175 -13 180 1 5 -1 27 -5 49 -4 22 -12 69 -18 105 -14 82 -33 114
-109 184 -102 95 -213 145 -379 172 -102 17 -343 18 -530 3 -115 -9 -492 -19
-840 -22 -129 -1 -341 9 -605 27 -295 20 -554 26 -701 16z m396 -84 c0 -3 -62
-40 -137 -84 -229 -132 -236 -132 -50 0 90 63 131 86 155 87 17 1 32 -1 32 -3z
m300 0 c0 -2 -115 -70 -255 -151 -339 -195 -371 -193 -94 7 l204 146 73 1 c39
1 72 -1 72 -3z m165 -6 c-3 -6 -21 -17 -38 -26 l-32 -15 30 25 c30 26 51 34
40 16z m-715 -15 c-14 -8 -133 -77 -265 -153 -132 -77 -242 -138 -244 -136 -2
2 9 14 25 27 16 14 94 79 173 145 154 130 148 127 276 130 57 1 59 0 35 -13z
m850 -23 c-204 -119 -229 -127 -77 -25 51 34 103 62 117 62 19 1 9 -8 -40 -37z
m329 29 c20 -5 -14 -28 -215 -144 -216 -125 -242 -138 -280 -135 l-42 3 211
143 c198 133 213 142 256 141 25 -1 57 -4 70 -8z m211 -15 c-14 -12 -329 -195
-390 -226 -57 -29 6 15 180 124 102 64 194 116 205 116 17 0 17 -2 5 -14z
m195 -5 c-18 -15 -348 -202 -351 -198 -7 7 321 207 341 207 11 0 15 -3 10 -9z
m830 -4 c-57 -39 -447 -258 -451 -254 -4 4 340 219 406 254 14 7 34 13 45 13
19 0 19 0 0 -13z m-555 -6 c-331 -195 -437 -251 -474 -251 -25 0 -36 4 -30 9
5 6 92 64 194 130 l185 119 70 1 c45 0 65 -3 55 -8z m325 -7 c-11 -8 -110 -67
-221 -130 l-201 -115 -64 3 -63 3 198 128 199 127 86 0 c79 -1 84 -2 66 -16z
m464 -3 l44 -18 -139 -80 c-264 -153 -245 -144 -316 -141 l-63 3 200 127 c110
70 207 127 215 127 8 0 35 -8 59 -18z m-3030 5 c-15 -12 -271 -157 -274 -154
-1 1 21 29 49 61 48 53 60 60 122 77 63 17 113 25 103 16z m3177 -97 c18 -20
18 -21 -1 -35 -10 -8 -62 -38 -115 -67 l-95 -53 -70 5 c-52 5 -64 8 -48 14 13
5 26 6 30 4 5 -3 64 31 133 74 69 43 130 78 136 79 6 0 19 -9 30 -21z m64 -97
c0 -5 -17 -16 -37 -26 -41 -19 -39 -13 4 15 34 21 33 21 33 11z m-3477 -50
c-18 -15 -66 -55 -107 -90 l-76 -63 0 29 c0 35 8 42 114 104 92 53 116 60 69
20z m235 10 c7 -5 -10 -15 -48 -26 -42 -13 -76 -32 -110 -63 -30 -27 -50 -39
-50 -30 0 19 17 33 104 84 75 45 84 47 104 35z m267 -2 c4 -6 -7 -10 -27 -10
-25 0 -29 3 -18 10 19 13 37 13 45 0z m295 0 c11 -7 6 -10 -20 -10 -26 0 -31
3 -20 10 8 5 17 10 20 10 3 0 12 -5 20 -10z m310 0 c11 -7 7 -10 -18 -10 -20
0 -31 4 -27 10 8 13 26 13 45 0z m510 0 c11 -7 7 -10 -18 -10 -20 0 -31 4 -27
10 8 13 26 13 45 0z m290 0 c11 -7 6 -10 -20 -10 -26 0 -31 3 -20 10 8 5 17
10 20 10 3 0 12 -5 20 -10z m270 0 c11 -7 6 -10 -20 -10 -26 0 -31 3 -20 10 8
5 17 10 20 10 3 0 12 -5 20 -10z m320 0 c11 -7 6 -10 -20 -10 -26 0 -31 3 -20
10 8 5 17 10 20 10 3 0 12 -5 20 -10z m190 0 c11 -7 4 -10 -25 -10 -29 0 -36
3 -25 10 8 5 20 10 25 10 6 0 17 -5 25 -10z m830 -49 c0 -5 -30 -26 -67 -47
-38 -20 -79 -44 -92 -53 -20 -13 -23 -13 -19 -1 4 14 154 110 171 110 4 0 7
-4 7 -9z m-3293 -60 l-26 -40 72 42 c66 38 79 42 155 46 57 2 82 0 82 -8 0 -9
5 -9 21 -1 11 7 23 9 26 6 3 -2 -19 -18 -48 -35 -30 -17 -76 -53 -104 -81
l-50 -51 149 85 149 86 80 0 c43 0 77 -4 75 -9 -1 -5 -61 -57 -133 -116 -71
-59 -134 -111 -140 -116 -5 -6 85 45 200 112 l210 123 88 4 c48 2 87 0 87 -5
0 -4 -45 -39 -100 -78 -55 -38 -100 -71 -100 -73 0 -2 10 2 23 10 12 8 45 28
72 43 28 16 77 46 109 67 57 37 62 38 148 38 53 0 87 -4 83 -9 -3 -5 -84 -65
-180 -132 -96 -67 -175 -124 -175 -126 0 -2 19 7 43 21 23 13 125 73 227 132
l185 108 88 4 c48 2 87 0 87 -5 -1 -4 -115 -86 -255 -182 -233 -160 -307 -214
-222 -163 72 44 554 320 585 336 25 13 53 16 120 14 l87 -3 -33 -20 c-19 -11
-125 -80 -237 -153 -188 -123 -205 -132 -228 -121 -35 16 -55 6 -75 -38 -15
-33 -17 -79 -17 -353 0 -173 3 -322 8 -330 5 -12 -46 -46 -232 -153 l-239
-138 -88 3 -88 3 254 164 c140 90 260 168 265 174 6 6 -1 4 -15 -4 -14 -9
-152 -88 -307 -178 l-281 -162 -174 1 c-95 1 -185 1 -200 0 -17 0 -40 11 -59
28 l-31 28 250 166 249 166 12 -53 12 -54 55 -7 c108 -13 247 32 328 106 83
77 83 154 -2 238 l-44 45 35 31 c75 65 96 140 57 204 -11 17 -17 32 -13 32 11
0 -99 69 -120 76 -15 5 -16 8 -5 22 11 13 11 14 -2 7 -8 -5 -64 -9 -125 -9
-97 -1 -114 -4 -147 -24 l-38 -24 -2 -186 c-1 -103 -3 -229 -3 -280 -1 -50 -5
-96 -11 -101 -5 -5 -65 -42 -133 -81 -68 -40 -180 -108 -249 -152 -97 -63
-126 -77 -133 -67 -16 25 -31 91 -22 99 4 4 91 63 193 130 176 117 246 167
170 123 -236 -137 -372 -214 -375 -211 -2 2 -5 25 -7 53 l-3 49 200 138 c299
206 298 206 30 51 -104 -61 -200 -115 -212 -122 -23 -12 -23 -11 -23 46 l1 58
144 100 c196 134 194 136 -16 14 -65 -38 -121 -69 -125 -69 -6 0 5 250 13 262
2 5 43 40 91 80 48 39 92 76 97 81 10 10 -58 -27 -125 -68 -19 -12 -41 -25
-47 -29 -10 -5 -13 10 -13 63 0 61 3 73 27 102 23 27 24 30 6 21 -28 -16 -33
-7 -33 60 0 63 16 114 44 137 16 13 86 31 95 24 2 -1 -8 -20 -22 -42z m2043
35 c-8 -7 -139 -84 -290 -171 -151 -87 -306 -178 -343 -202 -77 -49 -75 -49
-125 21 l-33 45 23 14 c29 19 463 269 503 290 41 22 288 25 265 3z m610 6 c-1
-4 -92 -65 -203 -137 l-201 -130 -163 -5 c-137 -4 -165 -8 -180 -22 -16 -17
-16 -19 0 -35 12 -12 38 -19 87 -21 l70 -4 0 -299 0 -299 -42 0 c-50 0 -115
-16 -124 -31 -3 -6 1 -18 10 -28 15 -16 1 -26 -222 -154 l-237 -137 -174 0
c-99 0 -171 4 -165 9 34 31 517 340 525 336 5 -4 9 -14 9 -24 0 -43 51 -54 94
-20 l27 21 -3 317 c-3 334 -8 371 -52 379 -30 6 -115 -93 -191 -222 -49 -84
-72 -115 -77 -105 -5 8 -28 49 -52 92 l-44 77 66 39 c266 154 650 375 679 391
32 17 60 19 299 19 145 0 264 -3 264 -7z m193 -3 c20 -5 37 -13 37 -17 -1 -9
-667 -456 -686 -460 -11 -3 -14 11 -14 62 l0 66 43 0 c56 0 117 18 124 36 8
21 -16 44 -45 44 -16 0 -22 4 -16 9 11 12 421 250 449 261 28 12 64 12 108 -1z
m127 -109 c11 -21 20 -41 20 -43 0 -3 -105 -73 -232 -157 -128 -84 -237 -158
-243 -163 -5 -6 1 -4 15 5 128 78 472 270 476 265 3 -3 8 -48 11 -99 l6 -95
-194 -133 c-275 -189 -274 -190 16 -22 l170 99 3 -40 c2 -22 1 -50 -2 -61 -4
-12 -74 -71 -171 -140 -158 -114 -203 -151 -132 -108 97 60 292 171 295 168 2
-2 -2 -62 -9 -132 -7 -76 -9 -191 -6 -279 9 -221 -2 -248 -110 -259 -67 -6
-79 2 -37 24 25 14 70 67 63 75 -2 2 -42 -19 -87 -46 l-84 -49 -91 0 -91 0 34
30 35 30 -51 -29 c-47 -26 -62 -29 -158 -33 -58 -1 -106 -1 -106 2 0 3 26 20
58 39 50 30 222 167 222 177 0 2 -86 -46 -191 -107 l-190 -109 -176 2 -176 3
174 126 c137 99 183 127 218 133 53 8 101 32 101 50 0 25 -25 35 -95 38 l-70
3 -2 210 c-2 116 0 215 5 221 5 9 750 444 759 444 2 0 12 -18 23 -40z m350 32
c0 -11 -182 -114 -189 -106 -3 3 1 9 9 14 8 5 47 29 85 53 69 44 95 55 95 39z
m-3630 -87 c0 -5 -116 -85 -124 -85 -4 0 -6 4 -6 9 0 6 28 26 63 45 66 38 67
38 67 31z m3650 -15 c0 -5 -37 -31 -82 -58 -121 -71 -131 -76 -126 -62 3 11
184 128 201 129 4 1 7 -3 7 -9z m-3602 -102 c-2 -15 -34 -45 -97 -90 -52 -38
-96 -66 -99 -64 -2 3 -2 20 2 38 5 29 18 40 94 85 48 28 91 52 95 52 5 1 7 -9
5 -21z m3612 -28 c0 -13 -23 -32 -72 -61 -40 -23 -93 -53 -116 -67 l-44 -25 4
24 c2 18 29 40 108 90 58 36 108 64 113 62 4 -2 7 -13 7 -23z m-2640 -52 c81
-56 93 -163 27 -235 -18 -20 -30 -23 -99 -23 l-78 0 0 140 0 140 59 0 c44 0
66 -5 91 -22z m2638 -80 c-5 -16 -207 -138 -228 -138 -24 0 5 24 110 89 96 59
125 71 118 49z m-1709 -145 c0 -38 -4 -88 -7 -113 l-7 -44 -145 -84 c-80 -46
-164 -95 -187 -108 l-43 -25 0 208 0 208 41 -70 c53 -92 105 -145 141 -145 39
0 93 58 149 159 24 44 47 81 52 81 4 0 7 -30 6 -67z m1707 28 c-9 -13 -217
-134 -222 -128 -5 4 205 135 219 136 5 1 6 -3 3 -8z m-3710 -39 c-9 -14 -106
-72 -106 -62 0 4 24 22 53 39 57 33 61 35 53 23z m114 -74 c0 -31 -8 -38 -106
-103 -59 -38 -111 -72 -116 -74 -5 -1 -8 16 -6 40 l3 43 105 62 c58 34 108 63
113 63 4 1 7 -14 7 -31z m3590 -22 c0 -33 -4 -37 -104 -94 -99 -57 -105 -59
-110 -38 -3 11 0 26 7 33 10 10 194 129 205 132 1 1 2 -14 2 -33z m-2627 -15
c64 -39 85 -126 48 -199 -26 -51 -54 -64 -131 -60 l-65 3 -3 67 -3 67 56 37
c30 20 55 39 55 41 0 5 -69 -35 -84 -49 -21 -17 -26 -6 -26 56 0 59 2 65 23
68 36 6 92 -7 130 -31z m917 -139 l0 -88 -315 -182 -315 -182 -92 0 -92 0 400
270 c219 148 402 269 407 270 4 0 7 -40 7 -88z m-1870 29 c0 -4 -54 -43 -121
-84 -74 -47 -119 -70 -117 -61 2 9 55 47 118 84 132 79 120 72 120 61z m3580
-33 c0 -31 -6 -36 -96 -88 -120 -69 -116 -68 -112 -34 2 24 19 38 103 91 55
34 101 63 103 63 1 0 2 -15 2 -32z m-3570 -82 c0 -7 -241 -156 -253 -156 -21
0 11 24 126 92 106 63 127 73 127 64z m3570 -73 c0 -25 -13 -35 -108 -90 -59
-34 -108 -60 -111 -58 -2 2 -1 14 2 27 4 15 39 43 104 85 54 33 101 62 106 62
4 1 7 -11 7 -26z m-1173 -36 c2 -3 -95 -62 -216 -131 l-220 -127 -87 3 -87 3
189 130 189 131 114 -3 c62 -1 116 -4 118 -6z m-2397 -27 c0 -28 -10 -37 -122
-110 -67 -43 -126 -76 -130 -74 -10 6 -10 45 0 60 5 8 234 148 250 153 1 1 2
-13 2 -29z m3563 -130 c-21 -21 -894 -518 -919 -524 -16 -4 -38 -9 -49 -13
-11 -3 63 46 165 109 102 63 325 201 495 307 l310 192 3 -32 c2 -17 0 -35 -5
-39z m-3544 -44 l23 -25 -133 -86 c-73 -48 -139 -89 -146 -92 -10 -4 -13 8
-13 45 l0 50 113 65 c61 36 117 65 123 66 6 1 21 -10 33 -23z m3540 -81 c-19
-18 -661 -387 -665 -382 -2 2 148 96 334 209 185 113 339 201 341 196 2 -6 -3
-16 -10 -23z m-3408 14 c19 -6 41 -13 49 -16 22 -7 -34 -35 -63 -31 -14 2 -86
-36 -200 -106 -98 -59 -181 -105 -185 -101 -10 9 8 21 193 127 147 83 163 95
158 116 -6 25 0 26 48 11z m211 -39 c16 0 28 -4 26 -10 -2 -8 -549 -359 -608
-390 -19 -10 -20 -8 -20 38 l0 49 259 149 c183 106 257 153 253 163 -4 11 2
13 28 8 18 -4 46 -7 62 -7z m2298 5 c0 -10 -56 -31 -72 -28 -21 5 -24 19 -5
26 16 7 77 8 77 2z m95 -8 c-24 -16 -479 -278 -515 -297 -65 -33 16 21 240
159 141 87 256 151 270 151 24 0 24 0 5 -13z m125 8 c0 -14 -57 -32 -77 -24
-39 14 -25 29 27 29 28 0 50 -2 50 -5z m-545 -14 c-18 -17 -65 -17 -65 -1 0 6
17 10 37 10 23 0 33 -4 28 -9z m143 3 c-13 -12 -281 -164 -285 -161 -6 6 260
167 276 167 8 0 12 -3 9 -6z m527 -3 c-6 -4 -145 -86 -310 -181 -165 -95 -316
-181 -335 -193 -19 -11 -29 -14 -23 -7 7 8 149 98 315 201 205 127 313 188
333 188 16 1 25 -3 20 -8z m140 -6 c-16 -7 -36 -10 -45 -7 -11 5 -9 8 10 13
14 4 34 7 45 7 15 0 12 -3 -10 -13z m-1007 -6 c-12 -7 -24 -7 -35 0 -15 9 -12
10 17 10 29 0 32 -1 18 -10z m-1498 -7 c0 -9 -854 -542 -869 -542 -6 0 -11 13
-11 30 0 23 8 35 38 54 38 25 723 421 777 449 32 17 65 22 65 9z m2930 -56 c0
-16 -484 -300 -501 -294 -10 3 476 306 494 307 4 1 7 -5 7 -13z m0 -140 c0
-34 -3 -36 -157 -125 -139 -80 -160 -89 -172 -76 -10 10 -12 18 -5 25 8 8 323
207 332 209 1 1 2 -14 2 -33z m0 -140 c0 -16 -276 -179 -293 -173 -8 2 276
185 291 187 1 0 2 -6 2 -14z m-1076 -91 c-16 -25 -404 -257 -404 -241 0 2 84
56 188 120 103 63 196 122 207 130 27 21 28 20 9 -9z m345 -12 l-24 -27 47 27
c36 21 60 27 105 27 110 0 112 -4 35 -77 l-67 -64 90 55 c106 65 112 63 122
-38 l6 -67 -39 -41 -39 -41 39 23 38 23 -5 -39 c-3 -21 -9 -69 -12 -105 l-6
-66 -97 -6 c-53 -4 -133 -7 -177 -7 l-80 0 85 85 c47 47 82 85 78 85 -3 0 -65
-34 -137 -76 -147 -85 -169 -89 -197 -30 l-16 33 78 78 c44 43 68 71 54 63
-14 -8 -52 -30 -84 -48 l-59 -34 6 120 c4 65 9 129 13 141 7 24 25 27 193 31
l74 2 -24 -27z m-2310 0 c-13 -16 -11 -16 15 1 22 14 42 17 87 14 81 -6 93
-20 49 -58 l-35 -31 42 25 c39 24 43 25 52 8 5 -9 12 -35 16 -55 7 -35 4 -42
-31 -79 l-39 -41 39 23 39 24 -7 -95 c-11 -144 -8 -139 -78 -139 l-59 0 21 31
c12 16 21 32 19 34 -2 2 -30 -12 -62 -31 -55 -32 -63 -34 -150 -34 l-91 0 64
66 c36 37 61 64 55 61 -5 -3 -59 -35 -119 -71 -102 -62 -110 -65 -127 -50 -28
25 -34 71 -13 97 10 12 12 16 4 10 -30 -27 -33 -13 -27 105 10 171 15 192 43
192 26 0 30 -11 14 -41 -14 -25 -8 -24 43 8 42 27 96 38 201 42 45 1 47 0 35
-16z m1343 7 c53 -15 55 -28 12 -63 -68 -57 -69 -59 -29 -36 22 13 50 29 62
37 21 13 22 12 30 -25 9 -46 9 -119 -1 -236 l-8 -88 -261 3 -262 3 -9 27 c-9
25 -6 31 30 63 l39 36 -35 -21 c-19 -11 -38 -20 -42 -20 -5 0 -8 35 -8 77 0
66 3 80 23 101 l22 25 -24 -13 -24 -12 6 62 c4 34 9 66 13 71 6 10 234 13 234
3 0 -4 -22 -32 -50 -64 -27 -32 -50 -60 -50 -63 0 -3 57 28 128 69 70 40 136
74 147 74 11 0 37 -5 57 -10z m-952 -5 c0 -2 -10 -9 -22 -15 -22 -11 -22 -10
-4 4 21 17 26 19 26 11z m2650 -53 l0 -48 -146 -84 c-81 -47 -151 -87 -157
-89 -6 -2 -8 12 -4 40 3 24 9 45 14 47 4 1 71 43 148 92 77 49 141 89 143 89
1 1 2 -21 2 -47z m-3514 -101 c-7 -10 -270 -171 -281 -171 -24 0 17 31 135
100 132 77 157 89 146 71z m-246 -36 c0 -2 -10 -9 -22 -15 -22 -11 -22 -10 -4
4 21 17 26 19 26 11z m3760 -44 l0 -38 -740 -428 c-408 -235 -743 -425 -745
-423 -9 8 1008 633 1058 651 30 10 69 34 92 57 30 29 316 218 333 220 1 0 2
-17 2 -39z m-2410 -5 c0 -3 -33 -24 -72 -49 -40 -24 -110 -67 -156 -96 -49
-30 -80 -45 -74 -34 6 9 75 55 153 100 147 85 149 86 149 79z m-1094 -25 c-9
-14 -272 -171 -287 -171 -24 0 6 21 144 101 130 76 153 88 143 70z m22 -106
c-15 -16 -303 -184 -307 -180 -2 3 0 10 6 16 18 18 277 167 292 168 8 1 12 -1
9 -4z m3482 -43 l0 -49 -332 -191 c-297 -172 -336 -192 -377 -192 -29 0 -42 3
-35 10 8 8 734 468 742 469 1 1 2 -21 2 -47z m-1090 -1 c0 -9 -299 -185 -305
-179 -4 4 286 186 298 187 4 1 7 -3 7 -8z m-1370 -14 c-15 -13 -614 -383 -657
-406 -26 -13 -71 -15 -57 -2 10 10 716 420 724 421 2 0 -2 -6 -10 -13z m-976
-46 c5 -7 -331 -221 -347 -221 -4 0 -7 10 -7 23 0 18 28 38 158 114 152 89
185 103 196 84z m625 -15 c-12 -12 -964 -596 -971 -596 -4 0 -8 13 -8 28 0 27
23 42 453 290 248 143 463 265 477 271 25 10 57 14 49 7z m-456 -17 c-28 -28
-518 -318 -522 -308 -2 6 1 15 5 19 10 10 483 284 505 293 22 8 24 8 12 -4z
m2535 3 c19 -6 -49 -49 -370 -234 -216 -125 -394 -225 -396 -223 -2 2 -1 8 2
14 7 10 679 433 706 444 19 7 29 7 58 -1z m720 -97 c-32 -29 -422 -246 -438
-243 -11 2 74 60 214 145 174 107 232 138 234 126 2 -8 -2 -21 -10 -28z
m-2558 -48 c-8 -8 -80 -54 -160 -102 -80 -49 -148 -93 -151 -98 -4 -5 -17 -7
-30 -5 -18 2 20 28 161 110 102 59 187 107 190 108 2 0 -2 -6 -10 -13z m240
-11 c0 -7 -376 -236 -388 -236 -30 0 2 23 181 127 181 105 207 119 207 109z
m2330 -43 c0 -9 -321 -195 -326 -190 -4 4 307 196 319 197 4 0 7 -3 7 -7z
m-3550 -87 c0 -3 -210 -132 -235 -144 -5 -3 -3 3 7 13 9 9 63 44 120 76 107
61 108 61 108 55z m3535 -72 c-44 -33 -286 -166 -292 -161 -15 15 16 41 154
126 137 85 148 90 151 70 2 -13 -3 -28 -13 -35z m-3296 12 c-2 -2 -20 -6 -39
-10 -25 -4 -31 -3 -20 4 14 9 69 15 59 6z m410 -72 c10 -3 0 -20 -35 -56 l-49
-51 50 28 c28 16 60 35 72 42 23 15 40 3 27 -19 -4 -7 -3 -8 4 -4 25 15 28
-154 6 -330 l-6 -50 -69 0 c-38 1 -69 5 -69 9 0 5 14 28 30 53 17 24 29 44 26
44 -2 0 -47 -25 -100 -55 -94 -54 -96 -55 -177 -55 l-82 0 24 27 24 27 -36
-21 c-43 -25 -69 -15 -101 37 -20 33 -20 35 -2 45 10 5 48 38 84 73 l65 63
-78 -46 c-43 -25 -80 -45 -84 -45 -7 0 3 196 13 253 l7 37 140 0 c119 0 138
-2 128 -14 -9 -11 -4 -10 21 2 31 16 128 19 167 6z m1226 -18 c33 -22 51 -60
60 -124 7 -52 6 -55 -26 -88 -18 -19 -28 -34 -22 -34 7 0 15 5 18 10 3 6 12
10 18 10 10 0 11 -18 6 -72 -4 -40 -8 -84 -8 -97 -1 -20 -4 -22 -28 -16 -36 9
-37 9 -23 36 12 21 11 21 -36 -5 -39 -22 -65 -28 -143 -33 l-96 -6 35 39 c70
78 95 107 85 102 -5 -3 -63 -36 -129 -73 l-119 -68 -32 17 c-52 28 -70 81 -69
201 0 55 4 126 8 158 l7 57 117 0 116 0 -30 -32 -29 -31 49 28 c27 15 61 31
75 36 40 13 169 3 196 -15z m759 13 c-5 -8 -1 -8 14 0 23 12 102 15 151 5 l32
-7 -47 -48 c-27 -27 -45 -49 -42 -49 4 0 49 25 102 55 86 50 100 55 153 54
108 -1 108 -5 -6 -104 -90 -79 -117 -105 -93 -92 32 18 163 93 190 109 l32 20
0 -64 -1 -63 -79 -64 c-79 -64 -102 -88 -57 -59 12 8 48 30 80 48 l57 32 0
-64 -1 -63 -47 -38 c-26 -20 -67 -56 -92 -78 l-45 -40 50 27 c28 15 67 38 87
51 21 13 40 23 42 23 3 0 5 -56 5 -125 l0 -125 -94 -81 c-52 -44 -95 -83 -95
-86 0 -2 15 4 33 15 17 11 59 36 92 55 l60 35 3 -56 c3 -55 2 -58 -35 -91
l-38 -33 37 21 37 22 3 -118 c2 -68 -1 -124 -7 -132 -8 -11 -7 -13 3 -7 11 7
13 -11 10 -99 -3 -103 -4 -108 -31 -131 -24 -21 -77 -34 -77 -19 0 3 13 32 30
65 l30 59 -109 -63 -109 -63 -93 -5 -93 -4 55 49 c56 50 41 48 -48 -9 l-52
-33 -19 32 c-25 42 -59 177 -45 177 5 1 24 15 43 32 l35 31 -39 -22 c-21 -12
-40 -21 -41 -19 -2 2 -6 26 -10 54 l-7 52 104 87 c149 127 149 125 -5 36 -49
-28 -90 -51 -93 -51 -2 0 -4 23 -4 52 0 34 6 58 17 70 16 18 16 18 0 12 -14
-5 -17 1 -17 37 0 66 7 81 58 122 26 20 67 56 92 78 l45 41 -47 -26 c-27 -14
-68 -38 -93 -52 l-45 -26 0 60 c0 59 1 61 46 99 36 31 42 39 26 39 -11 0 -19
-3 -16 -7 5 -9 -18 -17 -33 -12 -9 3 -13 25 -13 63 l0 58 68 62 67 62 -50 -28
c-27 -15 -55 -31 -61 -36 -8 -6 -13 32 -17 134 -4 124 -3 145 11 156 20 15 56
16 46 1z m914 -53 c-1 -1 -57 -33 -123 -71 -66 -37 -131 -75 -144 -84 -19 -12
-23 -13 -19 -1 7 23 282 188 286 172 2 -7 2 -15 0 -16z m-3517 -100 c-11 -13
-255 -166 -265 -166 -3 0 -6 13 -6 29 0 27 11 35 138 109 119 69 137 77 140
60 2 -10 -1 -25 -7 -32z m2409 -5 c0 -14 -47 -46 -187 -127 -104 -59 -191
-109 -195 -111 -5 -2 -8 0 -8 6 0 7 376 251 387 251 2 0 3 -9 3 -19z m1108 -3
c-5 -15 -271 -169 -278 -161 -3 3 0 8 5 10 6 2 66 39 135 83 127 80 145 89
138 68z m-2412 -35 c-17 -17 -271 -171 -275 -167 -9 9 26 33 149 103 122 69
141 79 126 64z m-1086 -88 c0 -7 -66 -54 -147 -104 -135 -83 -148 -89 -151
-70 -2 12 3 28 10 36 24 23 271 162 280 157 4 -3 8 -11 8 -19z m3500 -34 l0
-49 -141 -81 c-77 -44 -143 -81 -145 -81 -3 0 -4 17 -2 38 3 35 8 41 138 129
74 51 138 92 143 92 4 1 7 -21 7 -48z m-3477 -100 c3 -12 -2 -26 -12 -34 -31
-26 -298 -187 -311 -187 -16 0 -5 61 13 72 210 124 284 166 293 167 7 1 14 -8
17 -18z m1176 -5 c-8 -7 -166 -108 -352 -225 -291 -181 -344 -211 -378 -211
-21 0 -39 3 -39 8 1 10 772 453 779 447 3 -3 -2 -11 -10 -19z m2305 -61 c-3
-7 -67 -49 -142 -92 -158 -90 -156 -89 -151 -75 5 15 282 191 291 186 4 -3 5
-11 2 -19z m-3354 -9 c0 -6 -445 -276 -454 -276 -3 0 -6 6 -6 13 0 6 98 69
218 139 195 113 242 137 242 124z m179 -20 c-21 -19 -634 -385 -638 -381 -3 3
-1 13 4 21 12 17 604 362 624 363 8 1 12 -1 10 -3z m241 -5 c-8 -5 -208 -129
-445 -275 l-430 -266 -3 31 c-2 19 2 36 10 40 478 282 828 478 853 478 22 0
26 -2 15 -8z m735 -20 c-6 -5 -131 -84 -279 -176 -168 -104 -274 -164 -284
-160 -9 3 -12 9 -6 14 11 10 567 331 573 331 3 0 1 -4 -4 -9z m255 -24 c-18
-17 -736 -467 -744 -467 -3 0 -6 10 -6 23 1 19 59 56 378 239 207 120 379 218
382 218 2 0 -2 -6 -10 -13z m1938 -61 c-26 -20 -291 -166 -294 -163 -3 3 62
48 143 100 106 68 149 91 151 80 2 -8 2 -16 0 -17z m-3 -106 c-3 -5 -12 -10
-18 -10 -7 0 -6 4 3 10 19 12 23 12 15 0z m-3225 -100 c-24 -19 -40 -25 -40
-15 0 5 51 34 60 34 3 0 -6 -8 -20 -19z m3222 -82 c-23 -23 -298 -175 -305
-169 -18 17 13 47 157 147 l151 105 3 -37 c2 -20 -1 -41 -6 -46z m-3322 52
c-8 -5 -19 -10 -25 -10 -5 0 -3 5 5 10 8 5 20 10 25 10 6 0 3 -5 -5 -10z
m1220 -6 c0 -2 -15 -4 -32 -3 -27 0 -29 2 -13 8 18 8 45 4 45 -5z m270 0 c0
-2 -12 -4 -27 -4 -21 0 -24 3 -14 9 13 8 41 5 41 -5z m-260 -59 c0 -4 -7 -20
-16 -36 -8 -17 -14 -32 -12 -34 2 -2 34 14 72 36 67 39 71 40 150 37 l80 -3
-69 -74 c-57 -61 -64 -71 -35 -54 171 103 215 125 240 116 35 -12 67 -65 75
-124 6 -45 4 -54 -16 -76 l-24 -26 23 12 c12 6 22 8 22 4 0 -21 -21 -191 -25
-210 -5 -19 -12 -23 -45 -23 l-40 0 25 50 c14 28 23 50 20 50 -3 0 -45 -25
-94 -55 l-89 -55 -83 0 -83 0 64 66 65 67 -60 -33 c-33 -19 -77 -44 -97 -57
-44 -27 -60 -28 -93 -7 -16 11 -25 26 -25 43 0 14 -3 54 -6 89 -6 57 -4 65 17
89 l24 26 -24 -13 -24 -12 6 88 c6 111 11 124 48 124 16 0 29 -2 29 -5z
m-1009 -59 c-28 -30 -51 -57 -51 -60 0 -3 47 22 105 56 115 65 146 70 197 28
l23 -19 -95 -91 c-63 -61 -83 -85 -60 -72 19 11 67 38 105 61 l70 40 3 -65 c2
-43 -2 -71 -10 -82 -11 -13 -11 -14 1 -8 11 7 12 -1 7 -50 -14 -117 -17 -125
-40 -122 -13 2 -20 10 -20 21 2 20 -5 21 -30 2 -19 -15 -55 -21 -165 -29 l-64
-4 54 55 54 56 -45 -25 c-25 -14 -70 -39 -101 -57 l-55 -31 -59 15 c-33 9 -61
17 -62 19 -3 3 91 96 177 175 l35 32 -50 -27 c-27 -15 -66 -38 -85 -49 -19
-12 -50 -30 -68 -39 l-34 -17 4 80 c2 45 -1 81 -5 81 -7 0 -3 56 9 138 4 28 9
32 35 32 27 0 29 -2 19 -21 -11 -20 -11 -20 22 -3 37 20 96 31 177 33 l54 1
-52 -54z m-387 -5 c-27 -27 -309 -190 -312 -181 -5 15 -18 6 158 108 137 80
185 102 154 73z m2266 14 c0 -9 -262 -176 -268 -170 -11 10 24 36 144 105 126
74 124 73 124 65z m120 -30 c0 -2 -15 -12 -32 -20 l-33 -16 25 20 c24 20 40
26 40 16z m1107 -69 c-3 -7 -63 -45 -133 -86 -71 -40 -139 -80 -151 -88 -20
-13 -23 -12 -23 1 0 9 66 63 153 125 142 102 152 107 155 85 2 -14 1 -30 -1
-37z m-3507 -73 c0 -38 -1 -38 -136 -122 -74 -46 -136 -82 -138 -80 -2 2 -6
22 -8 43 l-3 40 135 78 c74 43 138 78 142 78 5 0 8 -17 8 -37z m870 -7 c0 -2
-11 -11 -25 -20 -14 -9 -25 -13 -25 -8 0 5 10 14 23 20 27 13 27 13 27 8z
m320 -70 c-8 -7 -223 -142 -478 -300 -393 -244 -467 -287 -495 -284 -17 2 -30
8 -27 13 5 11 989 583 1005 584 5 1 3 -5 -5 -13z m-1169 -119 c-23 -23 -247
-155 -253 -149 -4 4 -9 19 -13 33 -6 24 1 30 127 102 l133 76 7 -27 c4 -14 4
-30 -1 -35z m3489 41 c0 -7 -24 -26 -53 -42 -57 -31 -54 -24 8 23 46 35 45 35
45 19z m-3373 -131 l33 -12 -156 -99 -157 -98 -23 28 c-13 16 -22 33 -21 38 5
15 251 155 272 155 11 0 35 -6 52 -12z m2351 1 c-2 -6 -116 -89 -254 -185
l-249 -173 -80 0 c-54 1 -75 4 -64 10 291 170 627 360 637 360 8 0 12 -5 10
-12z m-908 -2 c0 -2 -121 -83 -269 -180 l-269 -177 -88 3 -89 3 295 170 c258
149 302 171 350 176 30 3 58 6 63 7 4 1 7 0 7 -2z m264 -8 c-15 -7 -28 -7 -40
1 -16 9 -12 10 21 10 35 0 37 -2 19 -11z m-1177 -4 c-3 -3 -12 -4 -19 -1 -8 3
-5 6 6 6 11 1 17 -2 13 -5z m378 -3 c-6 -5 -139 -89 -297 -186 -210 -129 -294
-176 -312 -173 -20 2 48 45 291 186 175 100 320 182 322 182 3 0 1 -4 -4 -9z
m1972 3 c-3 -3 -12 -4 -19 -1 -8 3 -5 6 6 6 11 1 17 -2 13 -5z m476 -13 c-3
-11 -12 -26 -21 -34 -23 -19 -112 -70 -112 -64 0 6 128 117 135 117 2 0 1 -9
-2 -19z m-3123 1 c0 -7 -380 -245 -411 -257 -9 -3 -21 0 -27 7 -8 10 23 33
145 103 258 149 293 167 293 147z m2375 -1 c-6 -4 -113 -81 -239 -170 l-228
-161 -67 0 c-45 1 -61 4 -51 10 115 71 569 329 580 329 8 1 10 -2 5 -8z m-966
-5 c-2 -2 -118 -77 -258 -166 -206 -130 -260 -160 -285 -158 -25 3 12 27 250
165 238 138 314 180 293 159z m126 -55 c-6 -6 -102 -69 -214 -140 -151 -97
-212 -131 -235 -131 -23 1 -27 3 -16 10 85 50 466 270 470 270 2 0 0 -4 -5 -9z
m-805 -24 c-152 -101 -403 -248 -419 -245 -13 2 59 49 207 135 208 121 299
168 212 110z m-680 -10 c-112 -75 -360 -219 -371 -215 -12 4 374 235 396 237
5 1 -6 -9 -25 -22z m2719 -84 c-18 -15 -67 -56 -107 -90 -71 -61 -76 -63 -130
-63 -30 0 -53 3 -50 6 13 12 313 182 317 179 2 -2 -12 -17 -30 -32z m-289 -27
c0 -3 -38 -32 -84 -65 -57 -41 -93 -61 -113 -61 -23 0 -7 13 82 65 115 68 115
68 115 61z m-1100 -70 c0 -8 -82 -57 -92 -54 -5 2 12 16 39 31 51 28 53 29 53
23z m790 -1 c0 -9 -75 -55 -90 -55 -8 0 8 14 35 30 54 32 55 32 55 25z m631
-35 c-22 -19 -41 -26 -41 -15 0 5 51 34 60 34 3 0 -6 -9 -19 -19z"/>
<path d="M1584 1844 c-18 -14 -18 -15 4 -4 12 6 22 13 22 15 0 8 -5 6 -26 -11z"/>
</g>
</svg>
